# xmcd
#
# Track frame offsets: 
#        150
#        14692
#        32052
#        49265
#        64925
#        81692
#        98482
#        117062
#        134007
#        152247
#        169925
#        187302
#        205430
#        223647
#        241832
#        258082
#        275140
#        289482
#        307402
#        323465
#        340610
#
# Disc length: 4774 seconds
#
# Revision: 1
# Processed by: cddbd v1.5.2PL0 Copyright (c) Steve Scherf et al.
# Submitted via: ExactAudioCopyFreeDBPlugin 1.0
#
DISCID=4e12a415
DTITLE=The Spinners - The Spinners:  The Chrome Collection [Rhino-Atla
DTITLE=ntic box set]
DYEAR=2003
DGENRE=Soul
TTITLE0=Heaven on Earth (So Fine)
TTITLE1=Back in the Arms of Love
TTITLE2=(Love Is) One Step Away
TTITLE3=Easy Come, Easy Go
TTITLE4=If You Wanna Do a Dance (All Night)
TTITLE5=Are You Ready for Love
TTITLE6=(A) Plain and Simple Love Song
TTITLE7=Body Language
TTITLE8=Working My Way Back to You - Forgive Me Girl
TTITLE9=Cupid - I've Loved You for a Long Time
TTITLE10=I Just Want to Fall in Love
TTITLE11=Now That You're Mine Again
TTITLE12=Yesterday Once More - Nothing Remains the Same
TTITLE13=Long Live Soul Music
TTITLE14=If You Go Your Way (I'll Go Mine)
TTITLE15=Love Connection (Raise the Window Down)
TTITLE16=Never Thought I'd Fall in Love
TTITLE17=Magic in the Moonlight
TTITLE18=Funny How Time Slips Away
TTITLE19=Right or Wrong
TTITLE20=Memories of Allison
EXTD=
EXTT0=
EXTT1=
EXTT2=
EXTT3=
EXTT4=
EXTT5=
EXTT6=
EXTT7=
EXTT8=
EXTT9=
EXTT10=
EXTT11=
EXTT12=
EXTT13=
EXTT14=
EXTT15=
EXTT16=
EXTT17=
EXTT18=
EXTT19=
EXTT20=
PLAYORDER=
